# xmcd CD database file generated by MAGIX_Freedb v0.9beta0
# 
# Track frame offsets:
#      150
#      12510
#      24323
#      36601
#      49537
#      61039
#      73177
#      84844
#      97480
#      109174
#      120909
#      133283
#      145551
#      157939
#      169270
#      180926
#      193750
#      206822
# 
# Disc length: 2935 seconds
# 
# Revision: 3 
# Processed by: cddbd v1.5.2PL0 Copyright (c) Steve Scherf et al.
# Submitted via: MAGIX_Freedb v0.9beta0
# 
DISCID=f80b7512
DTITLE=Brownie Mcghee - Born for bad Luck
DYEAR=1900
DGENRE=blues
TTITLE0=Brownie Mcghee - Picking my  tomatoes
TTITLE1=I m calling
TTITLE2=me and my dog
TTITLE3=born for bad luck
TTITLE4=step it up
TTITLE5=let tell you
TTITLE6=prison woman
TTITLE7=be good to me
TTITLE8=my barkin
TTITLE9=not guilty blues
TTITLE10=coal miner
TTITLE11=back door stranger
TTITLE12=step it up
TTITLE13=got to find
TTITLE14=dealing with teh devil
TTITLE15=In m black
TTITLE16=woman
TTITLE17=death of blind boy
EXTD=
EXTT0=
EXTT1=
EXTT2=
EXTT3=
EXTT4=
EXTT5=
EXTT6=
EXTT7=
EXTT8=
EXTT9=
EXTT10=
EXTT11=
EXTT12=
EXTT13=
EXTT14=
EXTT15=
EXTT16=
EXTT17=
PLAYORDER=
